<?xml version="1.0" standalone="no"?>
<!DOCTYPE svg PUBLIC "-//W3C//DTD SVG 20010904//EN"
 "http://www.w3.org/TR/2001/REC-SVG-20010904/DTD/svg10.dtd">
<svg version="1.0" xmlns="http://www.w3.org/2000/svg"
 width="187.000000pt" height="119.000000pt" viewBox="0 0 187.000000 119.000000"
 preserveAspectRatio="xMidYMid meet">

<g transform="translate(0.000000,119.000000) scale(0.100000,-0.100000)"
fill="#000000" stroke="none">
<path d="M570 761 c0 -93 -113 -148 -196 -94 -25 16 -34 9 -34 -26 1 -40 35
-106 67 -129 128 -91 305 15 277 166 -7 37 -78 122 -103 122 -6 0 -11 -17 -11
-39z"/>
<path d="M1420 770 c0 -94 -117 -157 -195 -106 -23 15 -26 15 -31 1 -10 -25 3
-87 24 -114 95 -127 292 -81 309 72 7 60 -11 110 -53 147 -44 38 -54 38 -54 0z"/>
</g>
</svg>
