<svg id="Capa_1" enable-background="new 0 0 512 512" height="512" viewBox="0 0 512 512" width="512" xmlns="http://www.w3.org/2000/svg"><g><path d="m501.347 31.645c-6.324-1.917-13.161.536-16.828 6.036-19.664 29.495-56.58 41.401-89.772 28.956l-54.091-20.284c-27.164-10.187-55.646-15.352-84.656-15.352s-57.492 5.165-84.656 15.351l-54.092 20.284c-33.192 12.447-70.107.54-89.771-28.956-3.667-5.5-10.5-7.951-16.828-6.036-6.326 1.916-10.653 7.747-10.653 14.357v55.279c0 31.567 7.46 63.177 21.599 91.46 12.308 24.62 19.129 51.048 20.275 78.549l.188 4.502c2.311 55.47 25.649 107.183 65.715 145.614s92.706 59.596 148.224 59.596 108.158-21.165 148.223-59.596c40.066-38.431 63.404-90.145 65.715-145.614l.188-4.5c1.146-27.513 7.973-53.952 20.291-78.581 14.118-28.235 21.582-59.845 21.582-91.414v-55.295c0-6.61-4.327-12.441-10.653-14.356zm-373.56 63.081 54.091-20.284c23.783-8.919 48.722-13.441 74.122-13.441s50.339 4.522 74.123 13.441l54.091 20.284c19.496 7.311 40.877 8.668 61.09 4-25.64 26.635-61.352 42.275-99.303 42.275-36.219 0-66.522 25.808-73.491 60h-33.018c-6.968-34.192-37.272-60-73.491-60-37.951 0-73.663-15.64-99.303-42.275 20.21 4.667 41.592 3.311 61.089-4zm263.213 121.275c0 24.813-20.187 45-45 45s-45-20.187-45-45 20.187-45 45-45 45 20.187 45 45zm-101.06 49.747-33.94 45.253-33.94-45.253c8.601-9.682 14.749-21.589 17.43-34.747h33.018c2.683 13.158 8.83 25.065 17.432 34.747zm-78.94-49.747c0 24.813-20.187 45-45 45s-45-20.187-45-45 20.187-45 45-45 45 20.187 45 45zm252.584-36.71c-14.225 28.444-22.108 58.977-23.432 90.751l-.188 4.5c-4.123 98.949-84.93 176.459-183.965 176.459-99.034 0-179.841-77.51-183.964-176.458l-.188-4.502c-1.323-31.761-9.201-62.282-23.438-90.762-12.015-24.036-18.376-50.937-18.406-77.808 20.841 28.836 50.176 50.082 83.466 61.067-13.855 13.616-22.469 32.549-22.469 53.463 0 41.355 33.645 75 75 75 11.474 0 22.349-2.598 32.082-7.224l45.918 61.224c2.833 3.777 7.279 6 12 6s9.167-2.223 12-6l45.918-61.224c9.733 4.626 20.608 7.224 32.082 7.224 41.355 0 75-33.645 75-75 0-20.914-8.614-39.847-22.469-53.463 33.29-10.985 62.625-32.232 83.466-61.068-.027 26.877-6.391 53.783-18.413 77.821z"/><circle cx="346" cy="216.001" r="15"/><circle cx="166" cy="216.001" r="15"/></g></svg>