<?xml version="1.0" encoding="iso-8859-1"?>
<!-- Generator: Adobe Illustrator 19.0.0, SVG Export Plug-In . SVG Version: 6.00 Build 0)  -->
<svg version="1.1" id="Capa_1" xmlns="http://www.w3.org/2000/svg" xmlns:xlink="http://www.w3.org/1999/xlink" x="0px" y="0px"
	 viewBox="0 0 512 512" style="enable-background:new 0 0 512 512;" xml:space="preserve">
<g>
	<g>
		<path d="M161.312,179.464c-43.935,0-79.68,35.745-79.68,79.68s35.745,79.68,79.68,79.68c43.935-0.001,79.68-35.745,79.68-79.68
			S205.247,179.464,161.312,179.464z M161.312,314.556c-30.555,0-55.412-24.858-55.412-55.412c0-30.555,24.858-55.413,55.412-55.413
			c30.555,0,55.412,24.859,55.412,55.413C216.724,289.699,191.867,314.556,161.312,314.556z"/>
	</g>
</g>
<g>
	<g>
		<path d="M256,314.468c-8.5,14.492-20.229,26.869-34.195,36.136L256,390.09l34.195-39.485
			C276.229,341.336,264.5,328.96,256,314.468z"/>
	</g>
</g>
<g>
	<g>
		<path d="M161.312,233.746c-14.004,0-25.397,11.394-25.397,25.398c0,14.004,11.393,25.397,25.397,25.397
			c14.004,0,25.397-11.393,25.397-25.397C186.709,245.14,175.316,233.746,161.312,233.746z"/>
	</g>
</g>
<g>
	<g>
		<path d="M483.587,199.664c43.722-72.499,15.108-168.277,13.849-172.38l-6.922-22.561l-17.496,15.836
			C426.89,62.308,364.964,84.091,364.345,84.306l0.301,0.868C331.08,69.426,294.18,61.117,256,61.117
			c-35.867,0-70.603,7.338-102.508,21.283c-15.765-6.12-65.025-26.954-103.571-61.84L32.424,4.724l-6.922,22.561
			c-1.202,3.916-27.334,91.399,8.355,162.404C11.775,228.042,0,271.673,0,317.119c0,34.477,14.144,66.133,42.04,94.084
			c21.283,21.325,50.658,40.496,87.309,56.977c61.268,27.554,121.548,38.211,124.084,38.653l2.566,0.445l2.566-0.445
			c2.536-0.44,62.816-11.099,124.085-38.653c36.652-16.482,66.026-35.652,87.309-56.977C497.857,383.25,512,351.596,512,317.119
			C512,275.567,502.151,235.535,483.587,199.664z M350.688,368.839c-11.259,0-22.126-1.708-32.358-4.872L256,435.939l-62.33-71.973
			c-10.232,3.166-21.1,4.872-32.358,4.872c-60.486,0-109.696-49.21-109.696-109.696s49.21-109.696,109.696-109.696
			c40.321,0,75.625,21.872,94.688,54.372c19.062-32.5,54.367-54.372,94.688-54.372c60.486,0,109.696,49.209,109.696,109.696
			S411.174,368.839,350.688,368.839z"/>
	</g>
</g>
<g>
	<g>
		<path d="M350.688,233.746c-14.004,0-25.397,11.394-25.397,25.398c0,14.004,11.393,25.397,25.397,25.397
			c14.004,0,25.397-11.393,25.397-25.397C376.084,245.14,364.692,233.746,350.688,233.746z"/>
	</g>
</g>
<g>
	<g>
		<path d="M350.688,179.464c-43.935,0-79.68,35.745-79.68,79.68s35.745,79.68,79.68,79.68c43.935,0,79.68-35.745,79.68-79.68
			C430.369,215.209,394.623,179.464,350.688,179.464z M350.688,314.556c-30.555,0-55.412-24.858-55.412-55.412
			c0-30.555,24.858-55.413,55.412-55.413S406.1,228.59,406.1,259.144C406.1,289.699,381.243,314.556,350.688,314.556z"/>
	</g>
</g>
<g>
</g>
<g>
</g>
<g>
</g>
<g>
</g>
<g>
</g>
<g>
</g>
<g>
</g>
<g>
</g>
<g>
</g>
<g>
</g>
<g>
</g>
<g>
</g>
<g>
</g>
<g>
</g>
<g>
</g>
</svg>
